<svg width="30" height="26" viewBox="0 0 30 26" fill="none" xmlns="http://www.w3.org/2000/svg">
<path d="M13.3441 2.60816e-08C15.8498 -0.000145783 18.3049 0.61107 20.4285 1.7637C22.5521 2.91633 24.2583 4.5638 25.352 6.51757C26.4456 8.47135 26.8824 10.6525 26.6125 12.8114C26.3426 14.9703 25.3767 17.0197 23.8256 18.7251L29.5593 23.6941C29.8453 23.9507 30.0035 24.2944 29.9999 24.6512C29.9964 25.0079 29.8312 25.3492 29.5402 25.6015C29.2491 25.8538 28.8553 25.9968 28.4436 25.9999C28.032 26.003 27.6354 25.8659 27.3393 25.6181L21.6055 20.649C19.9342 21.7905 17.972 22.5691 15.8828 22.9198C13.7936 23.2705 11.638 23.1831 9.59566 22.6649C7.55336 22.1468 5.68365 21.2129 4.14253 19.9411C2.60141 18.6694 1.43356 17.0967 0.736428 15.3542C0.0392919 13.6118 -0.166919 11.7501 0.134999 9.92454C0.436917 8.09898 1.23821 6.36246 2.47202 4.85986C3.70584 3.35726 5.3364 2.13215 7.22766 1.28675C9.11892 0.441342 11.216 0.000157142 13.3441 2.60816e-08ZM13.3441 2.72127C10.6375 2.72127 8.04177 3.65306 6.12793 5.31166C4.2141 6.97026 3.13891 9.2198 3.13891 11.5654C3.13891 13.911 4.2141 16.1606 6.12793 17.8192C8.04177 19.4778 10.6375 20.4095 13.3441 20.4095C16.0506 20.4095 18.6464 19.4778 20.5602 17.8192C22.474 16.1606 23.5492 13.911 23.5492 11.5654C23.5492 9.2198 22.474 6.97026 20.5602 5.31166C18.6464 3.65306 16.0506 2.72127 13.3441 2.72127ZM13.3441 4.08191C15.6342 4.08191 17.8306 4.87035 19.45 6.27377C21.0694 7.6772 21.9792 9.58066 21.9792 11.5654C21.9792 13.5502 21.0694 15.4536 19.45 16.857C17.8306 18.2605 15.6342 19.0489 13.3441 19.0489C11.0539 19.0489 8.85751 18.2605 7.23811 16.857C5.61871 15.4536 4.70894 13.5502 4.70894 11.5654C4.70894 9.58066 5.61871 7.6772 7.23811 6.27377C8.85751 4.87035 11.0539 4.08191 13.3441 4.08191Z" fill="white"/>
</svg>
