<svg width="119" height="47" viewBox="0 0 119 47" fill="none" xmlns="http://www.w3.org/2000/svg">
<path d="M2.90589 2.90583L14.6972 4.8376C18.623 5.48077 22.6355 5.36782 26.519 4.50484L27.9068 4.19644C31.7261 3.3477 35.6906 3.39985 39.4863 4.34878V4.34878C43.3319 5.31019 47.3501 5.35091 51.2144 4.46763L51.9551 4.29833C55.9634 3.38215 60.1282 3.39544 64.1305 4.33716L64.3933 4.39899C68.3391 5.32743 72.4482 5.31357 76.3877 4.35853V4.35853C80.3273 3.4035 84.4363 3.38964 88.3822 4.31808L89.3354 4.54236C92.9002 5.38115 96.5888 5.55822 100.218 5.06476L116.094 2.90583" stroke="#F5A517" stroke-width="5.77444" stroke-linecap="round"/>
<path d="M32.1276 25.4168C32.1276 30.7745 30.7646 35.4871 28.7144 38.7674C26.6385 42.0887 24.1428 43.5697 21.8716 43.5697C19.6004 43.5697 17.1047 42.0887 15.0289 38.7674C12.9786 35.4871 11.6156 30.7745 11.6156 25.4168C11.6156 20.0591 12.9786 15.3466 15.0289 12.0662C17.1047 8.74492 19.6004 7.26394 21.8716 7.26394C24.1428 7.26394 26.6385 8.74492 28.7144 12.0662C30.7646 15.3466 32.1276 20.0591 32.1276 25.4168Z" stroke="#F5A517" stroke-width="5.77444"/>
<path d="M56.3446 25.4168C56.3446 30.7745 54.9815 35.4871 52.9313 38.7674C50.8555 42.0887 48.3597 43.5697 46.0885 43.5697C43.8174 43.5697 41.3216 42.0887 39.2458 38.7674C37.1956 35.4871 35.8325 30.7745 35.8325 25.4168C35.8325 20.0591 37.1956 15.3466 39.2458 12.0662C41.3216 8.74492 43.8174 7.26394 46.0885 7.26394C48.3597 7.26394 50.8555 8.74492 52.9313 12.0662C54.9815 15.3466 56.3446 20.0591 56.3446 25.4168Z" stroke="#F5A517" stroke-width="5.77444"/>
<path d="M80.5616 25.4168C80.5616 30.7745 79.1986 35.4871 77.1484 38.7674C75.0726 42.0887 72.5768 43.5697 70.3056 43.5697C68.0344 43.5697 65.5387 42.0887 63.4629 38.7674C61.4126 35.4871 60.0496 30.7745 60.0496 25.4168C60.0496 20.0591 61.4126 15.3466 63.4629 12.0662C65.5387 8.74492 68.0344 7.26394 70.3056 7.26394C72.5768 7.26394 75.0726 8.74492 77.1484 12.0662C79.1986 15.3466 80.5616 20.0591 80.5616 25.4168Z" stroke="#F5A517" stroke-width="5.77444"/>
<path d="M104.779 25.4168C104.779 30.7745 103.416 35.4871 101.365 38.7674C99.2896 42.0887 96.7939 43.5697 94.5227 43.5697C92.2515 43.5697 89.7557 42.0887 87.6799 38.7674C85.6297 35.4871 84.2667 30.7745 84.2667 25.4168C84.2667 20.0591 85.6297 15.3466 87.6799 12.0662C89.7557 8.74492 92.2515 7.26394 94.5227 7.26394C96.7939 7.26394 99.2896 8.74492 101.365 12.0662C103.416 15.3466 104.779 20.0591 104.779 25.4168Z" stroke="#F5A517" stroke-width="5.77444"/>
</svg>
