<svg width="30" height="26" viewBox="0 0 30 26" fill="none" xmlns="http://www.w3.org/2000/svg">
<path d="M23.589 14.4733L18 18.7778H10.5V17.3333H16.5975C16.7332 17.3333 16.8663 17.2978 16.9826 17.2306C17.099 17.1635 17.1943 17.0672 17.2583 16.952C17.3223 16.8368 17.3527 16.7071 17.3463 16.5766C17.3398 16.4461 17.2967 16.3198 17.2215 16.211L15.8895 14.287C15.6162 13.8909 15.2455 13.5662 14.8102 13.3416C14.375 13.117 13.8888 12.9997 13.395 13H1.5C1.10218 13 0.720644 13.1522 0.43934 13.4231C0.158035 13.694 0 14.0614 0 14.4444V23.1111C0 23.8773 0.31607 24.6121 0.87868 25.1539C1.44129 25.6956 2.20435 26 3 26H17.4585C18.0999 26.0001 18.7339 25.8682 19.3181 25.6131C19.9023 25.358 20.423 24.9856 20.8455 24.5209L30 14.4444L27.822 13.7453C27.1094 13.5166 26.3487 13.4634 25.6093 13.5906C24.8699 13.7177 24.1753 14.0212 23.589 14.4733ZM25.887 6.34111C26.5635 5.66944 26.982 4.74067 26.982 3.71511C26.982 2.68956 26.5635 1.76078 25.887 1.08911C25.5449 0.745302 25.1341 0.471606 24.6795 0.284451C24.2248 0.097297 23.7355 0.000544031 23.241 9.30459e-08C23.241 9.30459e-08 21.375 -0.00433354 19.5 1.85756C17.625 -0.00433354 15.759 9.30459e-08 15.759 9.30459e-08C15.2647 0.00060546 14.7755 0.0972444 14.3209 0.284133C13.8662 0.471022 13.4554 0.744319 13.113 1.08767C12.4365 1.76078 12.018 2.68811 12.018 3.71367C12.018 4.73922 12.4365 5.66944 13.113 6.33967L19.5 13L25.887 6.34111Z" fill="white"/>
</svg>
