<svg width="29" height="30" viewBox="0 0 29 30" fill="none" xmlns="http://www.w3.org/2000/svg">
<path d="M2.85714 1.42859C1.27914 1.42859 0 2.7143 0 4.28573V27.1429C0 28.7143 1.27914 30 2.85714 30H25.7143C27.2929 30 28.5714 28.7143 28.5714 27.1429V4.28573C28.5714 2.7143 27.2929 1.42859 25.7143 1.42859H2.85714Z" fill="#30497B"/>
<path d="M2.85714 0C1.27914 0 0 1.27914 0 2.85714V25.7143C0 27.2929 1.27914 28.5714 2.85714 28.5714H25.7143C27.2929 28.5714 28.5714 27.2929 28.5714 25.7143V2.85714C28.5714 1.27914 27.2929 0 25.7143 0H2.85714Z" fill="#3B5998"/>
<path d="M21.4286 5.71423C18.2729 5.71423 15.7143 8.28566 15.7143 11.4285V15.7142H12.8572V19.9999H15.7143V29.9999H20V19.9999H23.5057L24.2857 15.7142H20V11.4285C20 10.5714 20.64 9.99995 21.4286 9.99995H24.2857V5.71423H21.4286Z" fill="#30497B"/>
<path d="M21.4286 4.28577C18.2729 4.28577 15.7143 6.8442 15.7143 10.0001V14.2858H12.8572V18.5715H15.7143V28.5715H20V18.5715H23.5057L24.2857 14.2858H20V10.0001C20 9.21105 20.64 8.57148 21.4286 8.57148H24.2857V4.28577H21.4286Z" fill="#ECF0F1"/>
<path d="M15.7144 28.5714H20.0001V30H15.7144V28.5714Z" fill="#BDC3C7"/>
</svg>
