<svg width="25" height="25" viewBox="0 0 25 25" fill="none" xmlns="http://www.w3.org/2000/svg">
<mask id="path-1-inside-1_0_16" fill="white">
<path fill-rule="evenodd" clip-rule="evenodd" d="M21.4891 13.18L13.2446 4L5 13.18H9.84455V21H16.6446V13.18H21.4891Z"/>
</mask>
<path d="M13.2446 4L13.9886 3.33182L13.2446 2.50341L12.5006 3.33182L13.2446 4ZM21.4891 13.18V14.18H23.7313L22.2331 12.5118L21.4891 13.18ZM5 13.18L4.256 12.5118L2.75781 14.18H5V13.18ZM9.84455 13.18H10.8446V12.18H9.84455V13.18ZM9.84455 21H8.84455V22H9.84455V21ZM16.6446 21V22H17.6446V21H16.6446ZM16.6446 13.18V12.18H15.6446V13.18H16.6446ZM12.5006 4.66818L20.7451 13.8482L22.2331 12.5118L13.9886 3.33182L12.5006 4.66818ZM5.744 13.8482L13.9886 4.66818L12.5006 3.33182L4.256 12.5118L5.744 13.8482ZM9.84455 12.18H5V14.18H9.84455V12.18ZM10.8446 21V13.18H8.84455V21H10.8446ZM16.6446 20H9.84455V22H16.6446V20ZM15.6446 13.18V21H17.6446V13.18H15.6446ZM21.4891 12.18H16.6446V14.18H21.4891V12.18Z" fill="white" mask="url(#path-1-inside-1_0_16)"/>
</svg>
