<svg width="30" height="26" viewBox="0 0 30 26" fill="none" xmlns="http://www.w3.org/2000/svg">
<path d="M3.75 0C1.67969 0 0 1.0918 0 2.4375V23.5625C0 24.9082 1.67969 26 3.75 26H11.25V21.9375C11.25 20.5918 12.9297 19.5 15 19.5C17.0703 19.5 18.75 20.5918 18.75 21.9375V26H26.25C28.3203 26 30 24.9082 30 23.5625V2.4375C30 1.0918 28.3203 0 26.25 0H3.75ZM5 12.1875C5 11.7406 5.5625 11.375 6.25 11.375H8.75C9.4375 11.375 10 11.7406 10 12.1875V13.8125C10 14.2594 9.4375 14.625 8.75 14.625H6.25C5.5625 14.625 5 14.2594 5 13.8125V12.1875ZM13.75 11.375H16.25C16.9375 11.375 17.5 11.7406 17.5 12.1875V13.8125C17.5 14.2594 16.9375 14.625 16.25 14.625H13.75C13.0625 14.625 12.5 14.2594 12.5 13.8125V12.1875C12.5 11.7406 13.0625 11.375 13.75 11.375ZM20 12.1875C20 11.7406 20.5625 11.375 21.25 11.375H23.75C24.4375 11.375 25 11.7406 25 12.1875V13.8125C25 14.2594 24.4375 14.625 23.75 14.625H21.25C20.5625 14.625 20 14.2594 20 13.8125V12.1875ZM13.125 3.25H16.875C17.5625 3.25 18.125 3.61562 18.125 4.0625C18.125 4.50938 17.5625 4.875 16.875 4.875H14.375V8.125H15.625V7.3125C15.625 6.86562 16.1875 6.5 16.875 6.5C17.5625 6.5 18.125 6.86562 18.125 7.3125V8.53125C18.125 9.20664 17.2891 9.75 16.25 9.75H13.75C12.7109 9.75 11.875 9.20664 11.875 8.53125V4.0625C11.875 3.61562 12.4375 3.25 13.125 3.25ZM23.75 4.875C23.0625 4.875 22.5 5.24062 22.5 5.6875V7.3125C22.5 7.75938 23.0625 8.125 23.75 8.125C24.4375 8.125 25 7.75938 25 7.3125V5.6875C25 5.24062 24.4375 4.875 23.75 4.875ZM20 5.6875C20 4.3418 21.6797 3.25 23.75 3.25C25.8203 3.25 27.5 4.3418 27.5 5.6875V7.3125C27.5 8.6582 25.8203 9.75 23.75 9.75C21.6797 9.75 20 8.6582 20 7.3125V5.6875ZM4.78906 3.61055L7.5 6.25117V4.0625C7.5 3.61562 8.0625 3.25 8.75 3.25C9.4375 3.25 10 3.61562 10 4.0625V8.9375C10 9.29805 9.64062 9.61289 9.10938 9.71445C8.57812 9.81602 8.01562 9.68398 7.71094 9.38945L5 6.74375V8.9375C5 9.38437 4.4375 9.75 3.75 9.75C3.0625 9.75 2.5 9.38437 2.5 8.9375V4.0625C2.5 3.70195 2.85938 3.38711 3.39062 3.28555C3.92188 3.18398 4.48438 3.31602 4.78906 3.61055Z" fill="white"/>
</svg>
