<svg width="21" height="14" viewBox="0 0 21 14" fill="none" xmlns="http://www.w3.org/2000/svg">
<g clip-path="url(#clip0_19_276)">
<path d="M10.5 0C6.48773 0 2.84919 2.45504 0.164315 6.44269C-0.0547715 6.76939 -0.0547715 7.22581 0.164315 7.55251C2.84919 11.545 6.48773 14 10.5 14C14.5123 14 18.1508 11.545 20.8357 7.55731C21.0548 7.23062 21.0548 6.7742 20.8357 6.4475C18.1508 2.45505 14.5123 0 10.5 0ZM10.7878 11.9293C8.12443 12.1167 5.925 9.66164 6.09253 6.67811C6.23 4.21826 8.01274 2.22443 10.2122 2.07069C12.8756 1.88332 15.075 4.33837 14.9075 7.3219C14.7657 9.77694 12.983 11.7708 10.7878 11.9293ZM10.6547 9.65203C9.21987 9.75292 8.03421 8.43171 8.12872 6.82704C8.20175 5.50103 9.16401 4.42965 10.3497 4.34317C11.7844 4.24228 12.9701 5.56349 12.8756 7.16816C12.7982 8.49897 11.836 9.57035 10.6547 9.65203Z" fill="#292929"/>
</g>
<defs>
<clipPath id="clip0_19_276">
<rect width="20.3196" height="13.5464" fill="white" transform="scale(1.03349)"/>
</clipPath>
</defs>
</svg>
