<svg width="30" height="26" viewBox="0 0 30 26" fill="none" xmlns="http://www.w3.org/2000/svg">
<path d="M22.5 13.7647C22.5 16.3647 20.55 18.3529 18 18.3529C15.45 18.3529 13.5 16.3647 13.5 13.7647C13.5 11.1647 15.45 9.17647 18 9.17647C20.55 9.17647 22.5 11.1647 22.5 13.7647ZM30 6.11765V22.9412C30 24.6235 28.65 26 27 26H3C1.35 26 0 24.6235 0 22.9412V6.11765C0 4.43529 1.35 3.05882 3 3.05882V1.52941H9V3.05882H12L13.5 0H22.5L24 3.05882H27C28.65 3.05882 30 4.43529 30 6.11765ZM8.25 9.17647C8.25 7.95294 7.2 6.88235 6 6.88235C4.8 6.88235 3.75 7.95294 3.75 9.17647C3.75 10.4 4.8 11.4706 6 11.4706C7.2 11.4706 8.25 10.4 8.25 9.17647ZM25.5 13.7647C25.5 9.48235 22.2 6.11765 18 6.11765C13.8 6.11765 10.5 9.48235 10.5 13.7647C10.5 18.0471 13.8 21.4118 18 21.4118C22.2 21.4118 25.5 18.0471 25.5 13.7647Z" fill="white"/>
</svg>
