<svg width="30" height="30" viewBox="0 0 30 30" fill="none" xmlns="http://www.w3.org/2000/svg">
<path d="M29.4 15.3334C29.4 14.1 29.2999 13.2 29.0833 12.2667H15V17.8333H23.2666C23.1 19.2167 22.2 21.3 20.2 22.7L20.1719 22.8863L24.6248 26.3359L24.9333 26.3667C27.7666 23.75 29.4 19.9 29.4 15.3334Z" fill="#4285F4"/>
<path d="M15 30C19.05 30 22.4499 28.6666 24.9333 26.3667L20.2 22.6999C18.9333 23.5833 17.2333 24.1999 15 24.1999C11.0334 24.1999 7.66673 21.5833 6.46662 17.9667L6.29071 17.9816L1.66053 21.565L1.59998 21.7333C4.06662 26.6332 9.1333 30 15 30Z" fill="#34A853"/>
<path d="M6.4666 17.9666C6.14994 17.0333 5.96668 16.0332 5.96668 15C5.96668 13.9666 6.14994 12.9666 6.44994 12.0333L6.44156 11.8345L1.75335 8.1936L1.59996 8.26656C0.58334 10.2999 0 12.5833 0 15C0 17.4166 0.58334 19.6999 1.59996 21.7332L6.4666 17.9666Z" fill="#FBBC05"/>
<path d="M15 5.79996C17.8166 5.79996 19.7166 7.01662 20.8 8.03336L25.0333 3.9C22.4334 1.48334 19.05 0 15 0C9.1333 0 4.06662 3.36664 1.59998 8.2666L6.44996 12.0333C7.66673 8.41666 11.0334 5.79996 15 5.79996Z" fill="#EB4335"/>
</svg>
