<svg width="119" height="47" viewBox="0 0 119 47" fill="none" xmlns="http://www.w3.org/2000/svg">
<path d="M2.90583 2.90586L14.6972 4.83764C18.623 5.4808 22.6355 5.36786 26.5189 4.50488L27.9067 4.19648C31.7261 3.34773 35.6906 3.39989 39.4863 4.34881V4.34881C43.3319 5.31022 47.3501 5.35094 51.2144 4.46767L51.9551 4.29836C55.9634 3.38219 60.1282 3.39547 64.1305 4.3372L64.3933 4.39902C68.3391 5.32747 72.4482 5.31361 76.3877 4.35857V4.35857C80.3273 3.40353 84.4364 3.38967 88.3822 4.31812L89.3354 4.54239C92.9003 5.38118 96.5889 5.55826 100.218 5.0648L116.094 2.90586" stroke="white" stroke-width="5.77444" stroke-linecap="round"/>
<path d="M32.1275 25.4169C32.1275 30.7745 30.7645 35.4871 28.7143 38.7675C26.6384 42.0888 24.1427 43.5698 21.8715 43.5698C19.6003 43.5698 17.1046 42.0888 15.0287 38.7675C12.9785 35.4871 11.6155 30.7745 11.6155 25.4169C11.6155 20.0592 12.9785 15.3466 15.0287 12.0663C17.1046 8.74496 19.6003 7.26398 21.8715 7.26398C24.1427 7.26398 26.6384 8.74496 28.7143 12.0663C30.7645 15.3466 32.1275 20.0592 32.1275 25.4169Z" stroke="white" stroke-width="5.77444"/>
<path d="M56.3446 25.4169C56.3446 30.7745 54.9816 35.4871 52.9314 38.7675C50.8555 42.0888 48.3598 43.5698 46.0886 43.5698C43.8174 43.5698 41.3217 42.0888 39.2458 38.7675C37.1956 35.4871 35.8326 30.7745 35.8326 25.4169C35.8326 20.0592 37.1956 15.3466 39.2458 12.0663C41.3217 8.74496 43.8174 7.26398 46.0886 7.26398C48.3598 7.26398 50.8555 8.74496 52.9314 12.0663C54.9816 15.3466 56.3446 20.0592 56.3446 25.4169Z" stroke="white" stroke-width="5.77444"/>
<path d="M80.5617 25.4169C80.5617 30.7745 79.1987 35.4871 77.1484 38.7675C75.0726 42.0888 72.5769 43.5698 70.3057 43.5698C68.0345 43.5698 65.5387 42.0888 63.4629 38.7675C61.4127 35.4871 60.0497 30.7745 60.0497 25.4169C60.0497 20.0592 61.4127 15.3466 63.4629 12.0663C65.5387 8.74496 68.0345 7.26398 70.3057 7.26398C72.5769 7.26398 75.0726 8.74496 77.1484 12.0663C79.1987 15.3466 80.5617 20.0592 80.5617 25.4169Z" stroke="white" stroke-width="5.77444"/>
<path d="M104.779 25.4169C104.779 30.7745 103.416 35.4871 101.365 38.7675C99.2896 42.0888 96.7938 43.5698 94.5227 43.5698C92.2515 43.5698 89.7557 42.0888 87.6799 38.7675C85.6297 35.4871 84.2666 30.7745 84.2666 25.4169C84.2666 20.0592 85.6297 15.3466 87.6799 12.0663C89.7557 8.74496 92.2515 7.26398 94.5227 7.26398C96.7938 7.26398 99.2896 8.74496 101.365 12.0663C103.416 15.3466 104.779 20.0592 104.779 25.4169Z" stroke="white" stroke-width="5.77444"/>
</svg>
