<svg width="40" height="40" viewBox="0 0 40 40" fill="none" xmlns="http://www.w3.org/2000/svg">
<g clip-path="url(#clip0_81_237)">
<path d="M25 31.6667C25.0003 32.5076 24.6826 33.3176 24.1108 33.9343C23.539 34.5509 22.7553 34.9286 21.9167 34.9917L21.6667 35H18.3333C17.4924 35.0003 16.6824 34.6827 16.0657 34.1108C15.4491 33.539 15.0714 32.7553 15.0083 31.9167L15 31.6667H25ZM20 3.33334C23.025 3.33329 25.9317 4.50817 28.107 6.61013C30.2824 8.7121 31.5563 11.5768 31.66 14.6L31.6667 15V21.2733L34.7033 27.3467C34.8359 27.6117 34.9022 27.9048 34.8966 28.2011C34.8911 28.4973 34.8138 28.7878 34.6714 29.0476C34.529 29.3075 34.3258 29.5289 34.0791 29.6931C33.8324 29.8572 33.5497 29.9591 33.255 29.99L33.0633 30H6.93666C6.64027 30.0001 6.34827 29.9283 6.08569 29.7908C5.82312 29.6533 5.59779 29.4542 5.42902 29.2106C5.26025 28.9669 5.15307 28.686 5.11667 28.3919C5.08026 28.0977 5.11572 27.7991 5.21999 27.5217L5.29666 27.3467L8.33333 21.2733V15C8.33333 11.9058 9.56249 8.93835 11.7504 6.75043C13.9383 4.56251 16.9058 3.33334 20 3.33334Z" fill="#252525"/>
<circle cx="30" cy="9" r="4" fill="#F5A517"/>
</g>
<defs>
<clipPath id="clip0_81_237">
<rect width="40" height="40" fill="white"/>
</clipPath>
</defs>
</svg>
